Coordinates
version=1
nRows=16
nColumns=63
inDegrees=yes

Units are S.I. units (second, meters, Newtons, ...)
If the header above contains a line with 'inDegrees', this indicates whether rotational values are in degrees (yes) or radians (no).

endheader
time	pelvis_tilt	pelvis_list	pelvis_rotation	pelvis_tx	pelvis_ty	pelvis_tz	hip_flexion_r	hip_adduction_r	hip_rotation_r	knee_angle_r	knee_angle_r_beta	ankle_angle_r	subtalar_angle_r	mtp_angle_r	hip_flexion_l	hip_adduction_l	hip_rotation_l	knee_angle_l	knee_angle_l_beta	ankle_angle_l	subtalar_angle_l	mtp_angle_l	L5_S1_Flex_Ext	L5_S1_Lat_Bending	L5_S1_axial_rotation	L4_L5_Flex_Ext	L4_L5_Lat_Bending	L4_L5_axial_rotation	L3_L4_Flex_Ext	L3_L4_Lat_Bending	L3_L4_axial_rotation	L2_L3_Flex_Ext	L2_L3_Lat_Bending	L2_L3_axial_rotation	L1_L2_Flex_Ext	L1_L2_Lat_Bending	L1_L2_axial_rotation	L1_T12_Flex_Ext	L1_T12_Lat_Bending	L1_T12_axial_rotation	Abs_r3	Abs_r2	Abs_r1	Abs_t1	Abs_t2	neck_flexion	neck_bending	neck_rotation	arm_flex_r	arm_add_r	arm_rot_r	elbow_flex_r	pro_sup_r	wrist_flex_r	wrist_dev_r	arm_flex_l	arm_add_l	arm_rot_l	elbow_flex_l	pro_sup_l	wrist_flex_l	wrist_dev_l
3.033333	0.224850	-4.701740	90.573982	0.273246	0.944454	0.283880	1.645971	1.243234	-11.113629	1.426221	0.024892	11.631457	9.598776	0.000000	1.917613	0.930250	4.038749	0.127796	0.002230	10.497409	-16.995183	0.000000	-0.240525	0.008991	1.348786	-0.446679	0.011958	1.433085	-0.395158	0.021860	1.433085	-0.274896	0.021860	1.180187	-0.223351	0.018334	1.095888	-0.137436	0.013927	1.011589	-1.718045	0.101706	7.501541	0.000000	0.000000	19.508194	-0.147001	0.822272	4.297780	-9.471846	54.403011	29.320129	58.535244	-1.023294	4.291549	17.791629	-9.370358	76.953578	34.962625	78.556352	-9.275759	-1.342765
3.050000	0.421059	-4.997401	90.849631	0.272227	0.943640	0.285514	2.159180	1.368756	-11.732904	1.695017	0.029584	11.505058	9.600160	0.000000	2.303000	0.769478	4.368488	0.070957	0.001238	10.647484	-16.980652	0.000000	-0.234894	0.027640	1.247568	-0.436221	0.036761	1.325541	-0.385907	0.067203	1.325541	-0.268460	0.067203	1.091622	-0.218122	0.056363	1.013649	-0.134218	0.042814	0.935676	-1.677822	0.312665	6.938599	0.000000	0.000000	20.184145	-0.012801	0.893192	5.396373	-8.428451	57.288377	28.584610	52.940088	-0.641109	3.579593	17.408682	-8.470776	75.355736	34.998641	74.194031	-7.922018	-1.969739
3.066667	0.565839	-5.286376	91.089986	0.271177	0.942979	0.287100	2.664009	1.432511	-12.403867	1.965306	0.034301	11.385274	9.735134	0.000000	2.711751	0.670093	4.618883	0.079671	0.001391	10.781553	-16.985117	0.000000	-0.225331	0.039767	1.165625	-0.418462	0.052891	1.238477	-0.370196	0.096690	1.238477	-0.257531	0.096690	1.019922	-0.209242	0.081094	0.947070	-0.128754	0.061600	0.874219	-1.609518	0.449856	6.482857	0.000000	0.000000	20.825612	0.078882	0.721061	6.435838	-7.453775	59.891172	28.137380	47.457980	-0.542149	2.969449	17.155704	-7.463539	74.305845	34.933092	69.849309	-7.030894	-2.669970
3.083333	0.654970	-5.561792	91.277862	0.270138	0.942457	0.288571	3.138419	1.435235	-13.090460	2.210456	0.038580	11.280917	10.003090	0.000000	3.117920	0.635665	4.762299	0.128352	0.002240	10.887965	-16.990599	0.000000	-0.211626	0.045176	1.102040	-0.393011	0.060084	1.170917	-0.347681	0.109840	1.170917	-0.241867	0.109840	0.964285	-0.196516	0.092122	0.895407	-0.120923	0.069977	0.826530	-1.511624	0.511037	6.129214	0.000000	0.000000	21.401709	0.131953	0.363110	7.397816	-6.558442	62.161982	27.933817	42.305956	-0.689996	2.502606	17.036666	-6.374283	73.889119	34.744446	65.734678	-6.502334	-3.330231
3.100000	0.684471	-5.816693	91.394343	0.269145	0.942045	0.289839	3.562045	1.374006	-13.805038	2.411585	0.042090	11.220685	10.491338	0.000000	3.500333	0.670399	4.808193	0.204902	0.003576	10.962483	-17.024379	0.000000	-0.193921	0.044229	1.058588	-0.360130	0.058825	1.124750	-0.318593	0.107538	1.124750	-0.221632	0.107538	0.926264	-0.180075	0.090192	0.860103	-0.110806	0.068511	0.793941	-1.385157	0.500327	5.887548	0.000000	0.000000	21.891303	0.155699	-0.092300	8.216739	-5.737703	63.892412	27.916137	37.898212	-1.029532	2.240635	17.048843	-5.238060	74.008953	34.425170	62.539749	-6.162302	-3.782686
3.116667	0.669714	-6.036873	91.433410	0.268199	0.941748	0.290871	3.913343	1.270239	-14.386374	2.555830	0.044608	11.204768	11.012935	0.000000	3.833751	0.757520	4.744089	0.292993	0.005114	10.997050	-17.072009	0.000000	-0.174503	0.038986	1.039469	-0.324069	0.051852	1.104436	-0.286691	0.094792	1.104436	-0.199439	0.094792	0.909535	-0.162043	0.079501	0.844569	-0.099711	0.060390	0.779602	-1.246456	0.441022	5.781215	0.000000	0.000000	22.284766	0.165091	-0.623290	8.884774	-5.026312	65.181058	28.072865	33.870057	-1.507209	2.113730	17.310245	-4.007080	75.299153	33.905078	59.777177	-6.003507	-4.188670
3.133333	0.600959	-6.226942	91.383840	0.267409	0.941530	0.291595	4.194094	1.120775	-14.828075	2.638111	0.046044	11.243203	11.606327	0.000000	4.122125	0.900042	4.568085	0.399061	0.006965	10.988262	-17.151063	0.000000	-0.152703	0.027532	1.042487	-0.283585	0.036618	1.107643	-0.250876	0.066941	1.107643	-0.174525	0.066941	0.912176	-0.141800	0.056143	0.847021	-0.087255	0.042647	0.781865	-1.090744	0.311448	5.798000	0.000000	0.000000	22.586774	0.155802	-1.201705	9.350109	-4.402376	65.866636	28.377640	30.436373	-2.043664	2.250203	17.722300	-2.824225	77.080198	33.309085	58.175301	-5.715545	-4.302963
3.150000	0.487589	-6.382370	91.276140	0.266764	0.941401	0.291998	4.396386	0.941408	-15.025627	2.651947	0.046285	11.323562	12.101508	0.000000	4.363295	1.083734	4.305103	0.524727	0.009158	10.942766	-17.234115	0.000000	-0.129354	0.010554	1.063194	-0.240223	0.014037	1.129643	-0.212516	0.025662	1.129643	-0.147839	0.025662	0.930294	-0.120118	0.021523	0.863845	-0.073913	0.016349	0.797395	-0.923963	0.119394	5.913164	0.000000	0.000000	22.785134	0.158671	-1.777778	9.620420	-3.902070	66.029451	28.852449	27.221708	-2.653936	2.642265	18.359417	-1.670587	79.795761	32.658384	56.743341	-5.320084	-4.273413
3.166667	0.331785	-6.512415	91.108963	0.266315	0.941342	0.292056	4.532859	0.738041	-14.991746	2.599266	0.045366	11.450611	12.529050	0.000000	4.563610	1.301329	3.955020	0.663552	0.011581	10.851614	-17.318118	0.000000	-0.103426	-0.012116	1.099910	-0.192073	-0.016114	1.168655	-0.169919	-0.029458	1.168655	-0.118206	-0.029458	0.962422	-0.096042	-0.024706	0.893677	-0.059098	-0.018767	0.824933	-0.738763	-0.137055	6.117371	0.000000	0.000000	22.892525	0.174453	-2.333821	9.667517	-3.516813	65.560555	29.490139	24.401133	-3.313567	3.366140	19.112127	-0.630711	82.865227	32.006393	55.835941	-4.729216	-3.987652
3.183333	0.138514	-6.611634	90.909253	0.266057	0.941360	0.291764	4.597023	0.517285	-14.732089	2.483187	0.043340	11.619454	12.847329	0.000000	4.715942	1.546583	3.547540	0.810660	0.014149	10.717518	-17.399709	0.000000	-0.075806	-0.040322	1.146076	-0.140780	-0.053628	1.217706	-0.124542	-0.098038	1.217706	-0.086639	-0.098038	1.002816	-0.070394	-0.082224	0.931187	-0.043316	-0.062458	0.859557	-0.541475	-0.456128	6.374131	0.000000	0.000000	22.909630	0.223265	-2.852731	9.532248	-3.256030	64.619453	30.239765	21.951288	-4.044884	4.367436	19.956176	0.279106	86.270446	31.430650	55.034942	-4.025859	-3.492550
3.200000	-0.079536	-6.675961	90.682051	0.265972	0.941448	0.291132	4.587970	0.290117	-14.254634	2.312893	0.040368	11.821909	13.028100	0.000000	4.812584	1.806029	3.102550	0.957876	0.016718	10.550832	-17.474184	0.000000	-0.047602	-0.072354	1.202057	-0.088401	-0.096231	1.277186	-0.078205	-0.175922	1.277186	-0.054404	-0.175922	1.051800	-0.044203	-0.147544	0.976672	-0.027200	-0.112077	0.901543	-0.340014	-0.818484	6.685482	0.000000	0.000000	22.850770	0.289016	-3.373595	9.207057	-3.095017	63.141321	31.049464	20.264723	-4.778370	5.614843	20.828337	1.070320	89.837352	30.918032	54.287253	-3.247876	-2.922036
3.216667	-0.308214	-6.703620	90.448134	0.266031	0.941598	0.290215	4.508576	0.069006	-13.596323	2.101435	0.036677	12.054378	13.054115	0.000000	4.852251	2.066126	2.653712	1.097879	0.019162	10.346647	-17.564755	0.000000	-0.020016	-0.105945	1.254701	-0.037172	-0.140906	1.333120	-0.032884	-0.257594	1.333120	-0.022876	-0.257594	1.097863	-0.018587	-0.216042	1.019445	-0.011437	-0.164108	0.941026	-0.142972	-1.198467	6.978270	0.000000	0.000000	22.718015	0.393085	-3.790384	8.823537	-3.030909	61.740482	31.780155	18.886438	-5.591176	6.900335	21.612102	1.719761	93.176722	30.533160	53.609498	-2.368296	-2.233651
3.233333	-0.535873	-6.688473	90.197579	0.266198	0.941793	0.289090	4.362568	-0.138754	-12.747486	1.861807	0.032495	12.306424	12.885071	0.000000	4.829325	2.317141	2.199393	1.223750	0.021358	10.128080	-17.659528	0.000000	0.004481	-0.138733	1.303626	0.008321	-0.184515	1.385103	0.007361	-0.337315	1.385103	0.005121	-0.337315	1.140673	0.004161	-0.282904	1.059196	0.002560	-0.214897	0.977720	0.032005	-1.569376	7.250378	0.000000	0.000000	22.526891	0.526855	-4.089889	8.433235	-3.030009	60.660341	32.363832	17.770217	-6.412428	8.064356	22.281085	2.256225	96.253277	30.244145	52.813041	-1.448925	-1.594782
3.250000	-0.746914	-6.632148	89.945136	0.266400	0.942008	0.287855	4.162598	-0.324212	-11.832765	1.612974	0.028152	12.582228	12.635901	0.000000	4.749647	2.545966	1.768584	1.330845	0.023228	9.913312	-17.758454	0.000000	0.024659	-0.167866	1.343426	0.045795	-0.223261	1.427390	0.040513	-0.408148	1.427390	0.028183	-0.408148	1.175498	0.022899	-0.342311	1.091533	0.014090	-0.260024	1.007569	0.176139	-1.898929	7.471731	0.000000	0.000000	22.283736	0.684953	-4.231459	8.088415	-3.065093	60.157407	32.764766	16.657338	-7.192379	8.951425	22.854164	2.690179	99.202484	30.018396	51.361259	-0.552963	-1.145487
3.266667	-0.930766	-6.541418	89.677383	0.266608	0.942214	0.286598	3.931542	-0.481768	-10.862135	1.375708	0.024011	12.869514	12.303171	0.000000	4.622504	2.743904	1.362290	1.413652	0.024673	9.723628	-17.867108	0.000000	0.040010	-0.191364	1.376297	0.074303	-0.254514	1.462315	0.065732	-0.465283	1.462315	0.045727	-0.465283	1.204260	0.037153	-0.390230	1.118241	0.022862	-0.296423	1.032222	0.285788	-2.164750	7.654549	0.000000	0.000000	22.008148	0.856121	-4.204223	7.787336	-3.114167	60.156714	32.992051	15.493722	-7.845522	9.519891	23.357142	3.030718	102.137756	29.855405	48.820158	0.276448	-0.990123
3.283333	-1.085002	-6.427394	89.388914	0.266815	0.942389	0.285396	3.695136	-0.613598	-9.867428	1.170781	0.020434	13.156835	11.911116	0.000000	4.463337	2.909465	0.963394	1.469639	0.025650	9.593503	-17.954330	0.000000	0.050681	-0.208949	1.402855	0.094119	-0.277902	1.490533	0.083263	-0.508039	1.490533	0.057923	-0.508039	1.227498	0.047062	-0.426089	1.139819	0.028959	-0.323662	1.052141	0.362006	-2.363673	7.802256	0.000000	0.000000	21.732041	1.029687	-4.016320	7.519799	-3.162350	60.492385	33.104179	14.128699	-8.353379	9.798247	23.777171	3.280746	104.913847	29.776978	45.252264	1.072344	-1.123288
